<svg xmlns="http://www.w3.org/2000/svg" width="345" height="345" viewBox="0 0 345 345"><path d="M321.25,338.68l-31.87-56.07a54.66,54.66,0,0,0,5.69-3.18c1-.62,1.93-1.28,2.85-2a46.33,46.33,0,0,0,18.54-32.52c.21-2,.31-4,.32-6.06h0s0-.09,0-.14,0-.1,0-.15h0c0-2-.11-4-.32-6.07A46.33,46.33,0,0,0,297.92,200c-.92-.7-1.87-1.35-2.85-2a59.92,59.92,0,0,0-19.51-7.93,84.4,84.4,0,0,0-18.45-1.64H206.35l.09,2.17v147.9H236V289h18.31c1.59,0,3.16,0,4.72,0l28.28,49.75ZM236,218h30s6.34-.13,9.81,2c4.74,2.85,9.54,9,9.65,18.79h0v.35h0c-.11,9.82-4.91,15.93-9.65,18.78-3.47,2.09-9.81,2-9.81,2H236Z" fill="#28282a"/><polygon points="161.09 188.52 139.51 188.52 139.51 188.52 96.29 258.97 53.28 188.52 53.28 188.52 30.58 188.52 23.75 188.52 23.75 338.54 53.28 338.54 53.28 245.06 94.06 312.49 98.52 312.49 139.51 244.97 139.51 244.97 139.51 338.54 169.04 338.54 169.04 188.52 161.09 188.52" fill="#28282a"/><path d="M246.07,6.47a75.18,75.18,0,1,0,75.18,75.18A75.18,75.18,0,0,0,246.07,6.47M246.49,127a45.62,45.62,0,1,1,45.62-45.62A45.62,45.62,0,0,1,246.49,127" fill="#28282a"/><polygon points="108.8 6.32 108.8 66.56 53.28 66.56 53.28 6.32 23.75 6.32 23.75 66.56 23.75 96.09 23.75 156.34 53.28 156.34 53.28 96.09 108.8 96.09 108.8 156.34 138.33 156.34 138.33 96.09 138.33 66.56 138.33 6.32 108.8 6.32" fill="#28282a"/></svg>