<svg xmlns="http://www.w3.org/2000/svg" width="195" height="139" viewBox="0 0 195 139" fill="none"><path d="M190 136.71h-33.85a4.687 4.687 0 0 1-4.68-4.68V7a4.682 4.682 0 0 1 4.68-4.68H190a4.666 4.666 0 0 1 4.326 2.888c.235.568.355 1.177.354 1.792v125a4.667 4.667 0 0 1-.348 1.8 4.669 4.669 0 0 1-2.534 2.551 4.683 4.683 0 0 1-1.798.359ZM33 137.17 2.69 122a4.682 4.682 0 0 1-2.08-6.28L56.77 3.97a4.68 4.68 0 0 1 6.28-2.08L93.32 17.1a4.68 4.68 0 0 1 2.09 6.28L39.24 135.09a4.681 4.681 0 0 1-6.24 2.08ZM122.37 134.66l24-121.81a4.687 4.687 0 0 0-3.66-5.5L109.5.65a4.678 4.678 0 0 0-5.52 3.68L80 126.14a4.678 4.678 0 0 0 3.66 5.49l33.21 6.71a4.692 4.692 0 0 0 5.5-3.68Z"/></svg>